<?xml version="1.0" encoding="UTF-8" standalone="no"?>
<svg width="121px" height="29px" viewBox="0 0 121 29" version="1.1" xmlns="http://www.w3.org/2000/svg" xmlns:xlink="http://www.w3.org/1999/xlink">
    <!-- Generator: Sketch 44.1 (41455) - http://www.bohemiancoding.com/sketch -->
    <title>Group</title>
    <desc>Created with Sketch.</desc>
    <defs></defs>
    <g id="Page-8" stroke="none" stroke-width="1" fill="none" fill-rule="evenodd">
        <g id="Header-Home-Mobile" transform="translate(-62.000000, -13.000000)" fill="#FFFFFF">
            <g id="Group" transform="translate(62.000000, 13.000000)">
                <path d="M31.18635,10.7486066 C31.2106123,10.5834786 31.3074242,10.4419184 31.4526817,10.3475706 C31.5737559,10.2767905 31.7674588,10.2296551 32.0821569,10.1823656 C33.6557265,9.99359298 35.0841176,10.1587209 36.3188849,11.3620599 C37.1419841,12.1642089 37.5293899,13.2732001 37.4809444,14.3584695 C37.432578,15.443739 36.9240979,16.5055177 36.0041868,17.1896742 C34.5273502,18.2985884 32.9052561,18.2985884 31.1622458,18.3457238 L31.1622458,11.4799754 C31.1379836,11.2205767 31.1379836,10.9845146 31.18635,10.7486066 L31.18635,10.7486066 Z M42.9280984,27.7124209 L42.9280984,28.0191091 L38.3524891,28.0191091 L31.1379836,19.4310702 L31.1379836,25.4475342 C31.1379836,27.1225353 33.2199542,27.7124209 34.4547214,27.7124209 L34.4547214,28.0191091 L34.3820927,28.0191091 L34.2610185,28.0191091 C32.8568896,28.0191091 31.4526817,27.9011936 30.0485528,27.9011936 C28.6443448,27.9011936 27.2402159,28.0191091 25.836008,28.0191091 L25.7150128,28.0191091 L25.6423841,28.0191091 L25.6423841,27.7124209 C26.8769933,27.7124209 28.9348597,27.1225353 28.959122,25.4475342 L28.959122,11.5036201 C28.959122,9.82846505 26.8769933,9.23873343 25.6423841,9.23873343 L25.6423841,8.93189123 L30.0969192,8.93189123 C30.5812161,8.93189123 31.0653548,8.93189123 31.5494936,8.90840055 C32.1305234,8.88475583 32.7115531,8.86111111 33.2926619,8.86111111 C35.2294541,8.86111111 36.8030237,9.21508871 38.3041226,10.630691 C39.1998505,11.4799754 39.7082515,12.9192225 39.6839892,14.2876124 C39.659885,15.5380868 39.2241127,16.5999426 38.3041226,17.4491499 C36.9967266,18.6760566 35.423078,19.1480268 33.6557265,19.2658653 C35.2294541,21.1062253 36.8030237,23.1117133 38.44938,24.9519964 C39.2966624,26.0372658 41.2818211,27.7124209 42.9280984,27.7124209 L42.9280984,27.7124209 Z" id="Fill-11"></path>
                <path d="M55.8975205,15.0495345 L57.5136683,11.9197189 C57.8753232,13.8877636 58.5507588,15.8082074 59.2984781,17.7051216 C60.3115528,20.0287409 61.3488008,22.3522829 62.3378596,24.6759022 C62.7960503,25.7190967 63.4714859,26.7149999 64.4845605,27.3314893 C64.9429087,27.5685648 65.4734619,27.6871413 66.1488975,27.6871413 L66.1488975,27.9953473 C64.798105,27.9953473 63.4473125,27.8767708 62.0965201,27.8767708 C60.4563565,27.8767708 58.8402874,27.9953473 57.1999663,27.9953473 L57.1999663,27.6871413 C59.2984781,27.6871413 60.9146259,27.0232833 59.9498191,24.6759022 L55.8975205,15.0495345 Z M44.8741722,27.7108257 L44.8741722,28.0191091 C46.104413,28.0191091 47.3586697,27.9242943 48.588753,27.9005326 C49.8189938,27.9005326 51.0249826,28.0191091 52.2552234,28.0191091 L52.2552234,27.7108257 C49.143637,27.7108257 49.6741901,26.1459566 50.4460828,23.9645207 C51.0733292,22.091523 51.8210486,20.2658165 52.5687679,18.4401101 C53.8713712,15.2391641 55.1979903,12.0620571 56.452247,8.86111111 L54.7155476,8.88487285 C54.1367265,12.0382954 52.6170358,15.3577405 51.2903379,18.4401101 C50.4944294,20.2658165 49.7465526,22.1152073 48.9748175,23.9645207 C48.1787515,25.9325653 47.3586697,27.7108257 44.8741722,27.7108257 L44.8741722,27.7108257 Z" id="Fill-13"></path>
                <path d="M110.387505,15.0495345 L112.003641,11.9197189 C112.365529,13.8877636 113.040881,15.8082074 113.788595,17.7051216 C114.801662,20.0287409 115.838824,22.3522829 116.827797,24.6759022 C117.286063,25.7190967 117.961414,26.7149999 118.974482,27.3314893 C119.432826,27.5685648 119.963533,27.6871413 120.638964,27.6871413 L120.638964,27.9953473 C119.288181,27.9953473 117.937399,27.8767708 116.586616,27.8767708 C114.946386,27.8767708 113.33025,27.9953473 111.690099,27.9953473 L111.690099,27.6871413 C113.788595,27.6871413 115.404731,27.0232833 114.439853,24.6759022 L110.387505,15.0495345 Z M99.3642384,27.7108257 L99.3642384,28.0191091 C100.59447,28.0191091 101.848718,27.9242943 103.07887,27.9005326 C104.309102,27.9005326 105.515161,28.0191091 106.745314,28.0191091 L106.745314,27.7108257 C103.633672,27.7108257 104.164378,26.1459566 104.936187,23.9645207 C105.56335,22.091523 106.311063,20.2658165 107.058777,18.4401101 C108.361371,15.2391641 109.68798,12.0620571 110.942228,8.86111111 L109.20562,8.88487285 C108.626724,12.0382954 107.107123,15.3577405 105.780357,18.4401101 C104.984454,20.2658165 104.23674,22.1152073 103.464853,23.9645207 C102.668793,25.9325653 101.848718,27.7108257 99.3642384,27.7108257 L99.3642384,27.7108257 Z" id="Fill-14"></path>
                <path d="M77.2575182,13.064696 C77.8723487,14.2261385 78.5106425,15.38766 79.1727083,16.5492605 C80.0947997,18.1706036 81.0168912,19.7917887 81.9626002,21.4131318 C82.7428314,22.7440945 83.263037,23.5668126 83.4758273,23.8572719 C85.9348407,19.7917887 88.0153543,15.4845061 90.2379597,11.2497397 C90.7817058,10.2091573 91.2072864,9.14448196 91.6801024,8.07980658 L93.0987817,8.05555556 C93.146017,9.02346381 93.2170243,9.99145105 93.2879544,10.9594383 C93.6898402,15.4361621 94.1154209,19.8886348 94.4936891,24.3654376 C94.6591669,26.204487 95.6995781,27.4627756 97.6383087,27.4627756 L97.6383087,27.777328 C96.1960889,27.777328 94.9901998,27.6564678 93.5480572,27.6564678 C92.0820654,27.6564678 90.9234888,27.777328 89.4813462,27.777328 L89.4813462,27.4627756 C90.285195,27.4627756 91.0890438,27.2208183 91.6564075,26.7126526 C92.3894806,26.0351248 92.4367159,25.2850018 92.3421682,24.3411866 C91.9874404,20.3484564 91.6328671,16.2830522 91.2782165,12.266071 C90.9708784,12.8468317 90.4743677,13.7422239 89.8123019,14.9763405 C88.5828724,17.2509604 87.3532885,19.5498314 86.1475538,21.8487024 C85.2254624,23.5668126 84.3742239,25.2364997 83.5466803,27.002954 C83.3339671,27.4627756 83.1921069,27.753235 83.1447944,27.8741741 C83.0738643,27.7289839 82.9320813,27.4870266 82.7428314,27.1240512 C80.7804832,23.6877517 79.0308481,20.0822481 77.0211102,16.6701997 C75.7916807,14.613286 75.058762,13.3549974 74.8222768,12.9194268 C74.6803394,15.0488566 74.5148616,17.1783653 74.3730014,19.3078741 C74.2312183,21.1954255 74.0892809,22.9376288 73.9474207,24.7768361 C73.8056377,26.4706953 75.200545,27.4627756 76.7847022,27.4627756 L76.7847022,27.777328 C75.4843426,27.777328 74.5622512,27.6805609 73.2381968,27.6564678 C72.0560026,27.6564678 70.897426,27.777328 69.7152318,27.777328 L69.7152318,27.4627756 C71.4411721,27.4627756 72.5052781,26.4947884 72.6707559,24.7525851 C72.8362338,22.9376288 73.0017888,21.1711745 73.0962594,19.3321251 C73.2617372,16.9849101 73.3327445,14.6375371 73.52184,12.290322 C73.5455349,11.8305004 73.5691525,11.3949299 73.5927702,11.0077824 C73.6400826,10.0397951 73.6163878,9.07188687 73.6163878,8.10389962 L75.1296149,8.07980658 C75.1768502,8.2491688 75.2477803,8.46695408 75.3188648,8.68466037 C75.7442911,10.2818314 76.4299745,11.5642921 77.2575182,13.064696 L77.2575182,13.064696 Z" id="Fill-15"></path>
                <polygon id="Fill-16" points="5.60927152 5.28496495 11.931636 0 12.9224583 2.07021095"></polygon>
                <path d="M9.97252747,8.86111111 C4.45890206,8.86111111 0,13.2917471 0,18.7704982 C0,24.2491714 4.45890206,28.6797297 9.97252747,28.6797297 C15.4862311,28.6797297 19.9450549,24.2491714 19.9450549,18.7704982 C19.9450549,13.2917471 15.4862311,8.86111111 9.97252747,8.86111111 L9.97252747,8.86111111 Z M9.97252747,9.81397118 C5.84926189,9.81397118 2.49313187,13.8158435 2.49313187,18.7704982 C2.49313187,23.7013585 5.84926189,27.7268696 9.97252747,27.7268696 C14.0957931,27.7268696 17.4518448,23.725075 17.4518448,18.7704982 C17.4758692,13.8158435 14.1197391,9.81397118 9.97252747,9.81397118 L9.97252747,9.81397118 Z" id="Fill-17"></path>
            </g>
        </g>
    </g>
</svg>
